<svg xmlns="http://www.w3.org/2000/svg" viewBox="0 0 87.222 14.0315"><path fill="#1C75BC" d="M11.278 6.6315l-3.6642 6.3467L.2852.2848h14.6571l-1.2214 2.1155H3.9494L7.6136 8.747l2.4429-4.2311 1.2215 2.1156zm7.3286 4.2313l1.2214 2.1155h-9.7714L17.3852.2848l1.2214 2.1155-4.8857 8.4625h4.8857zm6.6501-7.4218c-1.8037 0-3.4448 1.3896-3.4448 3.8154 0 2.4092 1.6411 3.7998 3.4448 3.7998 1.8188 0 3.46-1.3906 3.46-3.7998 0-2.4257-1.6411-3.8154-3.46-3.8154zm0 6.2247c-1.0645 0-1.7002-.9609-1.7002-2.4092 0-1.4639.6357-2.4258 1.7002-2.4258s1.7153.9619 1.7153 2.4258c0 1.4482-.6508 2.4092-1.7153 2.4092zm8.9151-6.2247c-.7983 0-1.582.4287-2.188.9463h-.0591l-.1187-.7685h-1.4043v10.1279h1.7002v-2.2764l-.0444-1.2129c.5913.5029 1.2271.7988 1.8628.7988 1.6118 0 3.1055-1.4346 3.1055-3.9189 0-2.247-1.0498-3.6963-2.854-3.6963zm-.606 6.21c-.4287 0-.9316-.1621-1.4639-.6055V5.6588c.562-.5469 1.0645-.8125 1.5967-.8125 1.0942 0 1.5674.8574 1.5674 2.3066 0 1.6407-.7393 2.4981-1.7002 2.4981zm8.0425-6.21c-1.7002 0-3.3413 1.4492-3.3413 3.8154 0 2.3945 1.5669 3.7998 3.5781 3.7998.9165 0 1.7891-.3252 2.4839-.7842l-.5767-1.0645c-.5322.3398-1.0645.5322-1.6855.5322-1.168 0-1.9961-.7393-2.144-2.0254h4.6133c.0444-.1777.0737-.5029.0737-.8281-.0001-2.0252-1.0347-3.4452-3.0015-3.4452zm-1.7002 3.1202c.1479-1.168.8872-1.8037 1.7446-1.8037.9907 0 1.4785.6797 1.4785 1.8037h-3.2231zm7.9096-1.6563h-.0591L47.64 3.6188h-1.4043v7.2598h1.7002V6.443c.4434-1.0947 1.1387-1.4932 1.7153-1.4932.3101 0 .5024.0439.7539.1182l.2954-1.4785c-.2217-.1035-.458-.1484-.8276-.1484-.769-.0001-1.5381.5175-2.0552 1.4638zm6.4307-1.4639c-1.1533 0-2.188.4434-2.9863.9463l.6206 1.1387c.6509-.3848 1.3311-.71 2.0405-.71.9907 0 1.3013.6514 1.3306 1.4199-2.9863.3252-4.2729 1.1387-4.2729 2.6904 0 1.2725.8726 2.1299 2.144 2.1299.8574 0 1.5967-.4287 2.2476-.9766h.0591l.1182.7988h1.4048V6.5758c-.0001-2.0254-.902-3.1348-2.7062-3.1348zm1.0054 5.4854c-.5469.5029-.9902.7988-1.582.7988-.606 0-1.0498-.2813-1.0498-.9316 0-.7246.6509-1.2422 2.6318-1.4932v1.626zm6.4907.7695c-.6948 0-1.02-.4141-1.02-1.2715v-3.46h1.8481V3.6188h-1.8481V1.6373h-1.4194l-.207 1.9814-1.1236.0743v1.2715h1.0347v3.46c0 1.5674.6211 2.6318 2.3066 2.6318.5767 0 1.0796-.1338 1.4785-.2666l-.2954-1.2568c-.207.0888-.5029.163-.7544.163zm4.9824-6.2549c-1.7002 0-3.3413 1.4492-3.3413 3.8154 0 2.3945 1.5669 3.7998 3.5781 3.7998.9165 0 1.7896-.3252 2.4839-.7842l-.5762-1.0645c-.5322.3398-1.0649.5322-1.686.5322-1.168 0-1.9961-.7393-2.144-2.0254h4.6133c.0449-.1777.0742-.5029.0742-.8281 0-2.0252-1.0352-3.4452-3.002-3.4452zm-1.7002 3.1202c.1479-1.168.8872-1.8037 1.7446-1.8037.9907 0 1.479.6797 1.479 1.8037h-3.2236z"/><path fill="#27AAE1" d="M75.5687 2.9645a310.5802 310.5802 0 0 0-.2334 1.7754h-.0342c-.1123-.6035-.2236-1.207-.3359-1.7754L74.3617.3346h-1.0781l-.6035 2.6299c-.1113.5859-.2236 1.1807-.3359 1.7754H72.31c-.0693-.5947-.1553-1.1895-.2246-1.7754L71.6977.3346h-1.3018l1.043 5.6211h1.5693l.5254-2.5518c.0947-.4316.1641-.8877.2334-1.3018h.0342c.0605.4141.1289.8701.2236 1.3018l.5518 2.5518h1.5957l1-5.6211h-1.2158l-.3878 2.6299zm3.6446.6289h1.914V2.5328h-1.914V1.4039h2.25V.3346h-3.5166v5.6211h3.6035V4.8864h-2.3369zm6.7148-.6123v-.0342c.457-.1729.7324-.7158.7324-1.2158 0-1.0771-.9053-1.3965-2.0684-1.3965h-1.9229v5.6211h2.0859c1.2158 0 2.1816-.5088 2.1816-1.6553.0002-.75-.4393-1.1728-1.0086-1.3193zM83.9369 1.317h.6035c.5947 0 .8789.1641.8789.6035 0 .4053-.2666.6641-.8877.6641h-.5947V1.317zm.7148 3.6563h-.7148V3.524h.7148c.6992 0 1.0439.1992 1.0439.6904.0001.5167-.3534.7589-1.0439.7589z"/></svg>