<?xml version="1.0" encoding="utf-8"?>
<!-- Generator: Adobe Illustrator 22.0.1, SVG Export Plug-In . SVG Version: 6.00 Build 0)  -->
<svg version="1.1" id="Layer_1" xmlns="http://www.w3.org/2000/svg" xmlns:xlink="http://www.w3.org/1999/xlink" x="0px" y="0px"
	 viewBox="0 0 96.378 22.6772" enable-background="new 0 0 96.378 22.6772" xml:space="preserve">
<path fill="#1C75BC" d="M16.6632,10.7591l-3.6642,6.3467L5.6704,4.4123h14.6571l-1.2214,2.1155H9.3347l3.6642,6.3467l2.4429-4.2311
	L16.6632,10.7591z"/>
<path fill="#1C75BC" d="M23.9918,14.9903l1.2214,2.1155h-9.7714l7.3286-12.6935l1.2214,2.1155l-4.8857,8.4625H23.9918z"/>
<path fill="#1C75BC" d="M30.642,7.5686c-1.8037,0-3.4448,1.3896-3.4448,3.8154c0,2.4092,1.6411,3.7998,3.4448,3.7998
	c1.8188,0,3.46-1.3906,3.46-3.7998C34.1019,8.9582,32.4608,7.5686,30.642,7.5686z M30.642,13.7932
	c-1.0645,0-1.7002-0.9609-1.7002-2.4092c0-1.4639,0.6357-2.4258,1.7002-2.4258s1.7153,0.9619,1.7153,2.4258
	C32.3573,12.8322,31.7064,13.7932,30.642,13.7932z"/>
<path fill="#1C75BC" d="M39.557,7.5686c-0.7983,0-1.582,0.4287-2.188,0.9463H37.31l-0.1187-0.7686H35.787v10.1279h1.7002v-2.2764
	l-0.0444-1.2129c0.5913,0.5029,1.2271,0.7988,1.8628,0.7988c1.6118,0,3.1055-1.4346,3.1055-3.9189
	C42.411,9.0178,41.3612,7.5686,39.557,7.5686z M38.9511,13.7785c-0.4287,0-0.9316-0.1621-1.4639-0.6055V9.7863
	c0.562-0.5469,1.0645-0.8125,1.5967-0.8125c1.0942,0,1.5674,0.8574,1.5674,2.3066C40.6513,12.9211,39.912,13.7785,38.9511,13.7785z"
	/>
<path fill="#1C75BC" d="M46.9935,7.5686c-1.7002,0-3.3413,1.4492-3.3413,3.8154c0,2.3945,1.5669,3.7998,3.5781,3.7998
	c0.9165,0,1.7891-0.3252,2.4839-0.7842l-0.5767-1.0645c-0.5322,0.3398-1.0645,0.5322-1.6855,0.5322
	c-1.168,0-1.9961-0.7393-2.144-2.0254h4.6133c0.0444-0.1777,0.0737-0.5029,0.0737-0.8281
	C49.995,8.9885,48.9603,7.5686,46.9935,7.5686z M45.2934,10.6887c0.1479-1.168,0.8872-1.8037,1.7446-1.8037
	c0.9907,0,1.4785,0.6797,1.4785,1.8037H45.2934z"/>
<path fill="#1C75BC" d="M53.203,9.0324h-0.0591l-0.1187-1.2861H51.621v7.2598h1.7002v-4.4355
	c0.4434-1.0947,1.1387-1.4932,1.7153-1.4932c0.3101,0,0.5024,0.0439,0.7539,0.1182l0.2954-1.4785
	c-0.2217-0.1035-0.458-0.1484-0.8276-0.1484C54.4892,7.5686,53.7201,8.0861,53.203,9.0324z"/>
<path fill="#1C75BC" d="M59.6337,7.5686c-1.1533,0-2.188,0.4434-2.9863,0.9463l0.6206,1.1387c0.6509-0.3848,1.3311-0.71,2.0405-0.71
	c0.9907,0,1.3013,0.6514,1.3306,1.4199c-2.9863,0.3252-4.2729,1.1387-4.2729,2.6904c0,1.2725,0.8726,2.1299,2.144,2.1299
	c0.8574,0,1.5967-0.4287,2.2476-0.9766h0.0591l0.1182,0.7988h1.4048v-4.3027C62.3397,8.6779,61.4379,7.5686,59.6337,7.5686z
	 M60.6391,13.0539c-0.5469,0.5029-0.9902,0.7988-1.582,0.7988c-0.606,0-1.0498-0.2813-1.0498-0.9316
	c0-0.7246,0.6509-1.2422,2.6318-1.4932V13.0539z"/>
<path fill="#1C75BC" d="M67.1298,13.8234c-0.6948,0-1.02-0.4141-1.02-1.2715v-3.46h1.8481V7.7463h-1.8481V5.7649h-1.4194
	l-0.207,1.9814l-1.1235,0.0742V9.092h1.0347v3.46c0,1.5674,0.6211,2.6318,2.3066,2.6318c0.5767,0,1.0796-0.1338,1.4785-0.2666
	l-0.2954-1.2568C67.6771,13.7492,67.3812,13.8234,67.1298,13.8234z"/>
<path fill="#1C75BC" d="M72.1122,7.5686c-1.7002,0-3.3413,1.4492-3.3413,3.8154c0,2.3945,1.5669,3.7998,3.5781,3.7998
	c0.9165,0,1.7896-0.3252,2.4839-0.7842l-0.5762-1.0645c-0.5322,0.3398-1.0649,0.5322-1.686,0.5322
	c-1.168,0-1.9961-0.7393-2.144-2.0254h4.6133c0.0449-0.1777,0.0742-0.5029,0.0742-0.8281
	C75.1142,8.9885,74.079,7.5686,72.1122,7.5686z M70.412,10.6887c0.1479-1.168,0.8872-1.8037,1.7446-1.8037
	c0.9907,0,1.479,0.6797,1.479,1.8037H70.412z"/>
<path fill="#27AAE1" d="M80.954,7.092c-0.0781,0.5771-0.1553,1.1719-0.2334,1.7754h-0.0342
	c-0.1123-0.6035-0.2236-1.207-0.3359-1.7754L79.747,4.4621h-1.0781L78.0653,7.092c-0.1113,0.5859-0.2236,1.1807-0.3359,1.7754
	h-0.0342c-0.0693-0.5947-0.1553-1.1895-0.2246-1.7754l-0.3877-2.6299h-1.3018l1.043,5.6211h1.5693l0.5254-2.5518
	c0.0947-0.4316,0.1641-0.8877,0.2334-1.3018h0.0342c0.0605,0.4141,0.1289,0.8701,0.2236,1.3018l0.5518,2.5518h1.5957l1-5.6211
	h-1.2158L80.954,7.092z"/>
<polygon fill="#27AAE1" points="84.5985,7.7209 86.5126,7.7209 86.5126,6.6604 84.5985,6.6604 84.5985,5.5315 86.8485,5.5315 
	86.8485,4.4621 83.3319,4.4621 83.3319,10.0832 86.9354,10.0832 86.9354,9.0139 84.5985,9.0139 "/>
<path fill="#27AAE1" d="M91.3134,7.1086V7.0744c0.457-0.1729,0.7324-0.7158,0.7324-1.2158c0-1.0771-0.9053-1.3965-2.0684-1.3965
	h-1.9229v5.6211h2.0859c1.2158,0,2.1816-0.5088,2.1816-1.6553C92.3222,7.6779,91.8827,7.2551,91.3134,7.1086z M89.3222,5.4445
	h0.6035c0.5947,0,0.8789,0.1641,0.8789,0.6035c0,0.4053-0.2666,0.6641-0.8877,0.6641h-0.5947V5.4445z M90.037,9.1008h-0.7148V7.6516
	h0.7148c0.6992,0,1.0439,0.1992,1.0439,0.6904C91.081,8.8586,90.7274,9.1008,90.037,9.1008z"/>
</svg>
