<?xml version="1.0" encoding="utf-8"?>
<!-- Generator: Adobe Illustrator 21.1.0, SVG Export Plug-In . SVG Version: 6.00 Build 0)  -->
<svg version="1.1" id="Layer_1" xmlns="http://www.w3.org/2000/svg" xmlns:xlink="http://www.w3.org/1999/xlink" x="0px" y="0px"
	 viewBox="0 0 148.5 17.8" style="enable-background:new 0 0 148.5 17.8;" xml:space="preserve">
<style type="text/css">
	.st0{fill:#FFFFFF;}
</style>
<g>
	<g>
		<path class="st0" d="M38.7,0.6h0.8v16.6h-0.8V0.6z"/>
		<path class="st0" d="M44.3,0.6h0.9l7.4,12.2l1.9,3.3h0.1c-0.1-1.6-0.1-3.1-0.1-4.7V0.6h0.8v16.6h-0.9L47,5l-1.9-3.3H45
			c0.1,1.6,0.1,3,0.1,4.5v10.9h-0.8V0.6z"/>
		<path class="st0" d="M63.6,1.3h-5.4V0.6h11.6v0.7h-5.4v15.9h-0.8C63.6,17.2,63.6,1.3,63.6,1.3z"/>
		<path class="st0" d="M72.9,0.6h8.9v0.7h-8.1V8h6.8v0.7h-6.8v7.8h8.4v0.7h-9.2C72.9,17.2,72.9,0.6,72.9,0.6z"/>
		<path class="st0" d="M94.8,17.2l-4.7-7.9h-3.7v7.9h-0.8V0.6h4.6c3.3,0,5.3,1.2,5.3,4.3c0,2.6-1.7,4.2-4.5,4.4l4.7,7.9H94.8z
			 M89.8,8.6c3.1,0,4.8-1.2,4.8-3.8s-1.7-3.6-4.8-3.6h-3.5v7.4H89.8z"/>
		<path class="st0" d="M99.3,0.6h0.9l7.4,12.2l1.9,3.3h0.1c-0.1-1.6-0.1-3.1-0.1-4.7V0.6h0.8v16.6h-0.9L101.9,5L100,1.7h-0.1
			c0.1,1.6,0.1,3,0.1,4.5v10.9h-0.8V0.6H99.3z"/>
		<path class="st0" d="M122.4,11.3h-6.8l-2.1,5.9h-0.8l5.9-16.6h0.7l5.9,16.6h-0.9L122.4,11.3z M122.1,10.6L121,7.2
			c-0.7-2-1.3-3.7-1.9-5.8H119c-0.6,2.1-1.2,3.8-1.9,5.8l-1.2,3.3h6.2V10.6z"/>
		<path class="st0" d="M127.9,0.6h0.8v15.9h7.8v0.7h-8.6V0.6z"/>
		<path class="st0" d="M138.1,14.4c1.2,1.4,3,2.3,5,2.3c2.7,0,4.4-1.5,4.4-3.6c0-2.2-1.4-2.9-3.1-3.7l-2.6-1.2
			c-1.4-0.6-3.4-1.6-3.4-4.1c0-2.4,2-4,4.7-4c2,0,3.6,0.9,4.5,2l-0.5,0.6c-1-1.1-2.3-1.8-4-1.8c-2.3,0-3.9,1.3-3.9,3.2
			c0,2.1,1.7,2.8,2.9,3.4l2.6,1.2c1.8,0.8,3.5,1.8,3.5,4.4c0,2.5-2.1,4.4-5.2,4.4c-2.5,0-4.3-1.1-5.5-2.5L138.1,14.4z"/>
	</g>
</g>
<polygon class="st0" points="32.3,0.6 16.3,0.6 13.1,0.6 14.7,3.4 21.1,14.4 22.7,17.2 24.3,14.4 27.5,8.9 25.9,6.1 22.7,11.7 
	17.9,3.4 30.7,3.4 "/>
<polygon class="st0" points="17.9,14.4 5.1,14.4 11.5,3.4 9.9,0.6 1.9,14.4 0.3,17.2 3.5,17.2 19.5,17.2 "/>
</svg>
