<svg xmlns="http://www.w3.org/2000/svg" viewBox="0 0 96 16"><title>webgl-operate-logo</title><path d="M12.6465,8,8.9823,14.3467,1.6537,1.6533H16.3108L15.0894,3.7688H5.318l3.6642,6.3468,2.443-4.2312Z" fill="#1c75bc"/><path d="M19.9751,12.2313l1.2215,2.1155H11.4252L18.7537,1.6533l1.2214,2.1155-4.8857,8.4625Z" fill="#1c75bc"/><path d="M26.6253,4.81A3.512,3.512,0,0,0,23.1805,8.625a3.4683,3.4683,0,1,0,6.9048,0A3.5146,3.5146,0,0,0,26.6253,4.81Zm0,6.2246c-1.0645,0-1.7-.9609-1.7-2.4091,0-1.4639.6357-2.4258,1.7-2.4258s1.7153.9619,1.7153,2.4258C28.3406,10.0732,27.69,11.0341,26.6253,11.0341Z" fill="#1c75bc"/><path d="M35.54,4.81a3.5385,3.5385,0,0,0-2.188.9463h-.059l-.1187-.7685H31.77V15.1152h1.7V12.8388l-.0444-1.2129a2.9349,2.9349,0,0,0,1.8628.7989c1.6118,0,3.1054-1.4346,3.1054-3.919C38.3943,6.2587,37.3445,4.81,35.54,4.81Zm-.6059,6.21a2.2958,2.2958,0,0,1-1.4639-.6055V7.0273a2.3189,2.3189,0,0,1,1.5967-.8125c1.0942,0,1.5674.8574,1.5674,2.3066C36.6346,10.1621,35.8953,11.02,34.9344,11.02Z" fill="#1c75bc"/><path d="M42.9769,4.81A3.5333,3.5333,0,0,0,39.6355,8.625a3.5007,3.5007,0,0,0,3.5782,3.8,4.5762,4.5762,0,0,0,2.4839-.7842l-.5767-1.0645a3.0338,3.0338,0,0,1-1.6855.5323A2.0782,2.0782,0,0,1,41.2913,9.083h4.6133a3.9668,3.9668,0,0,0,.0737-.8282C45.9783,6.2294,44.9437,4.81,42.9769,4.81Zm-1.7,3.12a1.8233,1.8233,0,0,1,1.7446-1.8037c.9907,0,1.4785.68,1.4785,1.8037Z" fill="#1c75bc"/><path d="M49.1863,6.2734h-.0591l-.1186-1.2861H47.6043v7.26h1.7V7.8115c.4434-1.0948,1.1387-1.4932,1.7153-1.4932a2.3664,2.3664,0,0,1,.7539.1182l.2954-1.4785a1.84,1.84,0,0,0-.8276-.1485A2.4657,2.4657,0,0,0,49.1863,6.2734Z" fill="#1c75bc"/><path d="M55.617,4.81a5.6754,5.6754,0,0,0-2.9863.9463l.6206,1.1387a4.1351,4.1351,0,0,1,2.0405-.71c.9907,0,1.3013.6514,1.3306,1.42-2.9864.3252-4.273,1.1387-4.273,2.6905a2.03,2.03,0,0,0,2.1441,2.13,3.5327,3.5327,0,0,0,2.2475-.9766H56.8l.1182.7988H58.323V7.9443C58.323,5.9189,57.4212,4.81,55.617,4.81Zm1.0054,5.4854a2.3068,2.3068,0,0,1-1.5821.7988c-.6059,0-1.05-.2812-1.05-.9316,0-.7246.6509-1.2422,2.6319-1.4932Z" fill="#1c75bc"/><path d="M63.1131,11.0644c-.6948,0-1.02-.4141-1.02-1.2715V6.333h1.8481V4.9873H62.0931V3.0058H60.6736l-.207,1.9815-1.1235.0742V6.333h1.0346v3.46c0,1.5674.6211,2.6319,2.3067,2.6319a4.6419,4.6419,0,0,0,1.4785-.2666l-.2954-1.2569A2.079,2.079,0,0,1,63.1131,11.0644Z" fill="#1c75bc"/><path d="M68.0955,4.81A3.5332,3.5332,0,0,0,64.7542,8.625a3.5007,3.5007,0,0,0,3.5781,3.8,4.5746,4.5746,0,0,0,2.4839-.7842L70.24,10.5761a3.0351,3.0351,0,0,1-1.686.5323A2.0781,2.0781,0,0,1,66.41,9.083h4.6132a3.92,3.92,0,0,0,.0743-.8282C71.0975,6.2294,70.0623,4.81,68.0955,4.81Zm-1.7,3.12A1.8234,1.8234,0,0,1,68.14,6.1259c.9908,0,1.479.68,1.479,1.8037Z" fill="#1c75bc"/><path d="M76.9373,4.333c-.0781.5771-.1553,1.1718-.2334,1.7754H76.67c-.1123-.6036-.2236-1.2071-.3359-1.7754l-.6035-2.63H74.6522l-.6036,2.63c-.1113.5859-.2236,1.1806-.3359,1.7754h-.0342c-.0693-.5948-.1553-1.1895-.2246-1.7754l-.3877-2.63H71.7645l1.0429,5.6211h1.5694l.5254-2.5518c.0947-.4316.164-.8877.2333-1.3017H75.17c.0606.414.1289.87.2237,1.3017l.5517,2.5518h1.5957l1-5.6211H77.325Z" fill="#27aae1"/><polygon points="80.582 4.962 82.496 4.962 82.496 3.901 80.582 3.901 80.582 2.772 82.832 2.772 82.832 1.703 79.315 1.703 79.315 7.324 82.919 7.324 82.919 6.255 80.582 6.255 80.582 4.962" fill="#27aae1"/><path d="M87.2967,4.35V4.3154A1.3031,1.3031,0,0,0,88.0291,3.1c0-1.0772-.9053-1.3965-2.0684-1.3965H84.0379V7.3242h2.0859c1.2159,0,2.1817-.5088,2.1817-1.6553A1.2732,1.2732,0,0,0,87.2967,4.35ZM85.3055,2.6855h.6035c.5947,0,.8789.1641.8789.6035,0,.4053-.2666.6641-.8877.6641h-.5947ZM86.02,6.3417h-.7148V4.8925H86.02c.6992,0,1.044.1992,1.044.6905C87.0643,6.1,86.7107,6.3417,86.02,6.3417Z" fill="#27aae1"/></svg>